<svg width="43" height="35" viewBox="0 0 43 35" fill="none" xmlns="http://www.w3.org/2000/svg">
<path d="M12.5703 9.34387H25.3672C26.2109 9.34387 26.9844 8.64075 26.9844 7.72668C26.9844 6.81262 26.2812 6.1095 25.3672 6.1095H12.5703C11.7266 6.1095 10.9531 6.81262 10.9531 7.72668C10.9531 8.64075 11.6562 9.34387 12.5703 9.34387Z" fill="white"/>
<path d="M30.4297 12.3673H12.5703C11.7266 12.3673 10.9531 13.0704 10.9531 13.9845C10.9531 14.8986 11.6562 15.6017 12.5703 15.6017H30.4297C31.2734 15.6017 32.0469 14.8986 32.0469 13.9845C32.0469 13.0704 31.3438 12.3673 30.4297 12.3673Z" fill="white"/>
<path d="M21.5 18.5547H12.5703C11.7266 18.5547 10.9531 19.2578 10.9531 20.1719C10.9531 21.0859 11.6562 21.7891 12.5703 21.7891H21.5C22.3438 21.7891 23.1172 21.0859 23.1172 20.1719C23.1172 19.2578 22.3438 18.5547 21.5 18.5547Z" fill="white"/>
<path d="M38.5156 0.132935H4.48438C2.16406 0.132935 0.265625 2.03137 0.265625 4.35168V23.9689C0.265625 26.2892 2.16406 28.1876 4.48438 28.1876H14.6094L20.2344 34.3751C20.5156 34.7267 20.9375 34.8673 21.4297 34.8673C21.8516 34.8673 22.2734 34.6564 22.625 34.3751L28.3906 28.1173H38.5859C40.9062 28.1173 42.8047 26.2189 42.8047 23.8986V4.35168C42.8047 2.03137 40.8359 0.132935 38.5156 0.132935ZM39.6406 23.8986C39.6406 24.4611 39.1484 24.9532 38.5859 24.9532H27.6172C27.1953 24.9532 26.7734 25.1642 26.4219 25.4454L21.3594 30.9298L16.4375 25.5158C16.1562 25.1642 15.7344 25.0236 15.2422 25.0236H4.48438C3.92187 25.0236 3.42969 24.5314 3.42969 23.9689V4.35168C3.42969 3.78918 3.92187 3.297 4.48438 3.297H38.5156C39.0781 3.297 39.5703 3.78918 39.5703 4.35168V23.8986H39.6406Z" fill="white"/>
</svg>
