<svg width="98" height="52" viewBox="0 0 98 52" fill="none" xmlns="http://www.w3.org/2000/svg">
<g opacity="0.5">
<path d="M93.3898 28.6003C94.0132 29.4879 94.3197 30.6761 94.3197 32.1692C94.3197 34.5871 93.7854 36.5944 92.7208 38.1891C91.6501 39.7838 90.3681 40.5801 88.8644 40.5801C87.9138 40.5801 87.1185 40.1426 86.4785 39.2675C85.8386 38.3924 85.5155 37.2601 85.5155 35.8707C85.5155 33.5441 86.0498 31.5263 87.1185 29.8217C88.1892 28.1192 89.4568 27.2669 90.9314 27.2669C91.9503 27.2669 92.7705 27.7128 93.3898 28.6003ZM84.4592 27.7501C82.7091 29.8342 81.8351 32.4263 81.8351 35.5265C81.8351 38.0211 82.4689 39.9704 83.7364 41.3722C85.0018 42.774 86.754 43.475 88.9866 43.475C91.5216 43.475 93.659 42.434 95.3946 40.3499C97.1322 38.2659 98 35.6032 98 32.36C98 30.0188 97.3559 28.1462 96.0656 26.7361C94.7753 25.3281 93.0667 24.623 90.9293 24.623C88.3694 24.6251 86.2093 25.666 84.4592 27.7501ZM78.188 25.1643L72.1092 36.4348L69.5184 25.1643H65.9602L70.2908 43.2655H72.074L81.8351 25.1643H78.188ZM49.3397 25.1643L46.6742 42.9171H50.2219L51.9617 31.6113C51.9906 31.4143 52.3821 30.9644 53.1339 30.2593C53.8878 29.5522 54.5195 29.0254 55.0311 28.6791C55.5426 28.3307 56.0231 28.0736 56.4704 27.9078C56.9199 27.7398 57.3237 27.6568 57.6841 27.6568C58.3054 27.6568 58.8232 27.9015 59.2374 28.3888C59.6496 28.8782 59.8609 29.5853 59.8609 30.5123C59.8609 30.8461 59.8235 31.2132 59.7573 31.6113L58.0196 42.9171H61.5695L63.3941 31.7275C63.477 31.2381 63.5184 30.7694 63.5184 30.3194C63.5184 28.7227 63.1124 27.4225 62.3006 26.4126C61.4845 25.4027 60.3434 24.8967 58.8667 24.8967C56.69 24.8967 54.5899 26.0538 52.5644 28.3702L52.467 28.308L52.9496 25.1663H49.3397V25.1643ZM41.0926 25.1643L38.427 42.9171H42.0163L44.6839 25.1643H41.0926ZM42.095 20.9691C42.5009 21.3486 42.9876 21.5353 43.553 21.5353C44.1184 21.5353 44.6031 21.3466 45.009 20.9691C45.417 20.5876 45.62 20.1355 45.62 19.6088C45.62 19.0676 45.417 18.6092 45.009 18.2298C44.6031 17.8482 44.1184 17.6595 43.553 17.6595C42.9876 17.6595 42.5009 17.8503 42.095 18.2298C41.6891 18.6092 41.4861 19.0676 41.4861 19.6088C41.4861 20.1355 41.6891 20.5897 42.095 20.9691ZM23.2046 40.0886C22.3989 39.0539 21.995 37.6334 21.995 35.8355C21.995 33.1853 22.6226 30.954 23.8756 29.1478C25.1307 27.3395 26.7916 26.4375 28.8586 26.4375C30.3042 26.4375 31.462 26.96 32.3297 28.0093C33.1996 29.0565 33.6325 30.4708 33.6325 32.2438C33.6325 34.867 32.9325 37.0901 31.5345 38.9108C30.1365 40.7294 28.4506 41.6397 26.481 41.6397C25.1017 41.6418 24.0081 41.1234 23.2046 40.0886ZM22.5231 27.8849C20.8476 29.9296 20.0109 32.5673 20.0109 35.794C20.0109 38.1082 20.6281 39.9331 21.8604 41.2644C23.0948 42.5978 24.6626 43.2635 26.5638 43.2635C29.016 43.2635 31.1389 42.2494 32.9304 40.2213C34.7219 38.1953 35.6166 35.5368 35.6166 32.2438C35.6166 29.9669 35.0139 28.1607 33.8085 26.8232C32.6032 25.4857 30.9794 24.8159 28.9415 24.8159C26.334 24.8179 24.1966 25.8402 22.5231 27.8849ZM12.557 49.6795C11.3641 50.3534 9.64508 50.6915 7.40001 50.6915C5.66237 50.6915 4.29132 50.4343 3.28684 49.92C2.28029 49.4057 1.777 48.7173 1.777 47.8567C1.777 46.5835 2.63444 45.5611 4.34931 44.7897C6.06625 44.0183 7.41867 43.6325 8.41072 43.6325C8.75659 43.6325 9.83151 43.9125 11.6354 44.4745C13.4394 45.0344 14.3444 45.8867 14.3444 47.0293C14.3444 48.1221 13.7479 49.0055 12.557 49.6795ZM13.2902 27.5573C14.2698 28.4075 14.7586 29.4816 14.7586 30.7798C14.7586 32.1567 14.2491 33.4735 13.2281 34.7343C12.2091 35.9931 10.7614 36.6255 8.88703 36.6255C7.48283 36.6255 6.35204 36.1611 5.49875 35.2362C4.64339 34.3113 4.21677 33.2081 4.21677 31.9348C4.21677 30.4065 4.78424 29.0794 5.92128 27.9617C7.05831 26.8439 8.38379 26.2819 9.89983 26.2819C11.1818 26.284 12.3126 26.7091 13.2902 27.5573ZM10.3141 24.8179C8.14978 24.8179 6.29615 25.5126 4.75319 26.902C3.21022 28.2914 2.43768 29.9441 2.43768 31.8623C2.43768 34.6535 3.79634 36.5156 6.51154 37.455V37.5318C3.90611 37.9838 2.60334 38.8714 2.60334 40.1944C2.60334 41.4946 3.90611 42.3884 6.51154 42.8778V42.9565C2.17053 43.9581 0 45.501 0 47.585C0 48.8562 0.666865 49.9138 2.00479 50.7474C3.34065 51.5831 5.22121 51.9999 7.64854 51.9999C10.3347 51.9999 12.4183 51.5043 13.9012 50.5151C15.382 49.5218 16.1235 48.3191 16.1235 46.9069C16.1235 45.8141 15.6513 44.883 14.7069 44.1178C13.7624 43.3547 12.0413 42.687 9.53943 42.1167C7.03962 41.5506 5.55465 41.1649 5.08451 40.9658C4.61644 40.7667 4.38243 40.4494 4.38243 40.014C4.38243 39.6034 4.62684 39.2467 5.11769 38.946C5.60647 38.6433 6.7186 38.3799 8.45003 38.1538C10.1835 37.9299 11.5629 37.6189 12.5922 37.229C13.6195 36.8371 14.5474 36.0657 15.3758 34.9231C16.2043 33.7805 16.6184 32.4802 16.6184 31.0266C16.6184 28.8534 15.6885 27.2441 13.8287 26.2031V26.1264H19.1618L19.3896 24.8138H10.3141V24.8179Z" fill="white"/>
<path d="M36.9792 18.7939C37.0434 18.3086 37.1904 17.8524 37.3789 17.4169L22.7632 15.7891C22.6741 16.2266 22.5809 16.6621 22.525 17.1101C22.4525 17.6658 22.4173 18.2153 22.3987 18.7607L37.0144 20.3886C36.9398 19.8764 36.9088 19.3517 36.9792 18.7939Z" fill="white"/>
<path d="M39.3839 14.8768C39.8002 14.5782 40.2476 14.348 40.7115 14.1655L31.7167 3.49634C31.2838 3.77836 30.851 4.05828 30.4244 4.37763C29.9956 4.69491 29.6042 5.02668 29.2107 5.35847L38.2054 16.0298C38.5389 15.6171 38.9137 15.2231 39.3839 14.8768Z" fill="white"/>
<path d="M44.0541 13.6926C44.576 13.7548 45.0648 13.8896 45.5308 14.0659L47.2829 0.362872C46.6968 0.252966 46.1045 0.153452 45.4956 0.0891674C45.0276 0.037325 44.5657 0.020737 44.1039 0L42.3496 13.73C42.8943 13.6594 43.4576 13.6263 44.0541 13.6926Z" fill="white"/>
<path d="M48.2523 15.9364C48.5734 16.3242 48.8198 16.7451 49.0145 17.1764L60.6706 8.61415C60.3496 8.18074 60.0223 7.75151 59.6557 7.33055C59.3389 6.95936 59.0034 6.62341 58.6658 6.28333L47.0159 14.8394C47.4612 15.1505 47.8816 15.4968 48.2523 15.9364Z" fill="white"/>
</g>
</svg>
