<svg width="424" height="84" viewBox="0 0 424 84" fill="none" xmlns="http://www.w3.org/2000/svg">
<g clip-path="url(#clip0_3476_2757)">
<path d="M0.5 67.9L10.2115 61.0287C10.7756 60.6296 11.4856 60.4964 12.1559 60.664V60.664C12.7608 60.8152 13.2794 61.2023 13.6179 61.726C17.7032 68.0479 22.4776 70.9 29 70.9C35.8 70.9 40.6 66.6 40.6 61.4C40.6 56.2 37.6 52.9001 24.2 47.2001C9 40.8001 3.5 34.1 3.5 23.3C3.5 12.5 13.8 2.30005 29.4 2.30005C45 2.30005 49.6 7.10004 54.9 15.4L45.1107 22.5788C44.6579 22.9109 44.0864 23.0373 43.5358 22.9272L43.2066 22.8614C42.6899 22.758 42.2377 22.4519 41.9286 22.0251C38.8957 17.8371 35.0053 15.4 29.4 15.4C23.5 15.4 19.4 18.7 19.4 23.3C19.4 27.9 21.6 30 35.4 36C51.6 43.2 56.5 50 56.5 60.4C56.5 70.8 45.1 84.1001 29.1 84.1001C13.1 84.1001 7.1 79.1 0.5 68V67.9Z" fill="#03ADA2"/>
<path d="M94.9212 70.4339C95.218 70.5988 95.4057 70.9083 95.4146 71.2478L95.7002 82.1C93.0002 83.2 88.9002 84 85.0002 84C73.7002 84 67.6002 78.3 67.6002 67.3V44H58.7002V32.7H67.7002V19.7L78.631 13.2757C78.9382 13.0952 79.2881 13 79.6444 13H82.2002V32.7H95.7002V44H82.2002V63.6C82.2002 69.6 84.1002 71.5 89.1002 71.5C93.6818 71.5 92.7218 71.1642 94.0677 70.4155C94.3326 70.2682 94.6563 70.2867 94.9212 70.4339V70.4339Z" fill="#03ADA2"/>
<path d="M152.1 74.6V82.4C149.5 83.2 146.8 83.7 143.4 83.7C137 83.7 134.1 81 133.2 77C128.4 81.9 123.2 84 116.7 84C110.2 84 102.2 79 102.2 71.4C102.2 63.8 109.9 56.4 131.9 53.2V50.6C131.9 45 129.5 42.5 124.9 42.5C120.388 42.5 116.165 44.9052 112.702 49.4324C112.574 49.5995 112.376 49.7 112.166 49.7V49.7C111.798 49.7 111.243 49.5518 110.936 49.3488C109.039 48.0913 103 43.9 103 43.9C107.8 36 116.7 30.6 127.1 30.6C137.5 30.6 146.4 37 146.4 49.1V70.9C146.4 73.1 146.9 73.7 148.6 73.7C150.06 73.7 150.045 73.5525 150.771 73.1311C151.035 72.9782 151.359 72.9884 151.626 73.1363V73.1363C151.919 73.299 152.1 73.6078 152.1 73.9429V74.6ZM121.9 75C125.5 75 128.8 73.5 132 70.5V60.2C120.2 62.4 116.1 65.2 116.1 69.7C116.1 74.2 118.1 75 121.9 75Z" fill="#03ADA2"/>
<path d="M189.985 13.5768C189.685 13.7767 189.303 13.797 188.972 13.655C188.878 13.6148 188.784 13.5762 188.69 13.5391C187.342 13.0079 185.982 12.8 184.9 12.8C180.8 12.8 179.1 15.1001 179.1 22.6001V32.8H189.8V44.1001H179.1V82H164.5V44.1001H155.6V32.8H164.5V23C164.5 6.50005 169.8 0.300049 181.8 0.300049C188 0.300049 188.3 0.800043 191.1 1.70004L190.43 12.8019C190.411 13.1157 190.246 13.4025 189.985 13.5768V13.5768Z" fill="#03ADA2"/>
<path d="M222.085 13.5768C221.785 13.7767 221.403 13.797 221.072 13.655C220.981 13.6163 220.891 13.5791 220.801 13.5433C219.449 13.009 218.085 12.8 217 12.8C212.9 12.8 211.2 15.1001 211.2 22.6001V32.8H221.9V44.1001H211.2V82H196.6V44.1001H187.7V32.8H196.6V23C196.6 6.50005 201.9 0.300049 213.9 0.300049C218.5 0.300049 220.4 0.800043 223.2 1.70004L222.53 12.8019C222.511 13.1157 222.347 13.4025 222.085 13.5768V13.5768Z" fill="#03ADA2"/>
<path d="M230.7 81.9V4.30005H255.8C274.6 4.30005 284.2 12.7001 284.2 28.6001C284.2 44.5001 274.4 52.5 257.2 52.5H246.2V81.9H230.6H230.7ZM246.2 40.1001H254.3C264.4 40.1001 269 36.5001 269 28.7001C269 20.9001 264.3 17.1001 254.3 17.1001H246.2V40.1001Z" fill="#03ADA2"/>
<path d="M292.4 81.9V1.59998H307V81.9H292.4Z" fill="#03ADA2"/>
<path d="M366.5 73.6V82.4C363.9 83.2 361.2 83.7 357.8 83.7C351.4 83.7 348.5 81 347.6 77C342.8 81.9 337.6 84 331.1 84C324.6 84 316.6 79 316.6 71.4C316.6 63.8 324.3 56.4 346.3 53.2V50.6C346.3 45 343.9 42.5 339.3 42.5C334.788 42.5 330.565 44.9052 327.102 49.4324C326.974 49.5995 326.776 49.7 326.566 49.7V49.7C326.198 49.7 325.643 49.5518 325.336 49.3488C323.438 48.0913 317.4 43.9 317.4 43.9C322.2 36 331.1 30.6 341.5 30.6C351.9 30.6 360.8 37 360.8 49.1V70.9C360.8 73.1 361.3 73.7 363 73.7C364.46 73.7 364.445 73.5525 365.171 73.1311C365.434 72.9782 365.759 72.9884 366.025 73.1363L366.325 73.3028C366.433 73.3628 366.5 73.4765 366.5 73.6V73.6ZM336.3 75C339.9 75 343.2 73.5 346.4 70.5V60.2C334.6 62.4 330.5 65.2 330.5 69.7C330.5 74.2 332.5 75 336.3 75Z" fill="#03ADA2"/>
<path d="M374.7 32.7H389.1V40.8C393.3 34.1 399.1 30.6 406.3 30.6C417.5 30.6 424.2 37.5 424.2 50.1V81.9H409.6V54.9C409.6 46.4 406.8 43.1 400.6 43.1C394.4 43.1 389.3 48.9 389.3 57.8V81.9H374.7V32.7Z" fill="#03ADA2"/>
</g>
<defs>
<clipPath id="clip0_3476_2757">
<rect width="424" height="84" fill="white"/>
</clipPath>
</defs>
</svg>
