<svg width="424" height="106" viewBox="0 0 424 106" fill="none" xmlns="http://www.w3.org/2000/svg">
<g clip-path="url(#clip0_5_33)">
<path d="M0 67.6L10.63 60.15L12.6 60.7C16.76 67.6 21.69 70.67 28.49 70.67C35.29 70.67 40.1 66.4 40.1 61.14C40.1 55.88 37.14 52.59 23.67 46.9C8.44 40.54 2.96 33.74 2.96 23.01C2.96 11.18 13.26 1.96997 28.81 1.96997C40.31 1.96997 48.97 6.78997 54.34 15.12L43.82 22.79L41.85 22.35C38.78 17.75 34.73 15.01 28.81 15.01C22.46 15.01 18.84 18.3 18.84 22.9C18.84 27.17 21.03 29.58 34.84 35.61C51.05 42.84 55.98 49.63 55.98 60.04C55.98 73.3 44.59 83.71 28.59 83.71C16.1 83.71 6.57 78.67 0 67.6Z" fill="#03ADA2"/>
<path d="M94.8699 70.45L95.1999 81.84C92.4599 82.94 88.4099 83.7 84.4599 83.7C73.1799 83.7 67.0399 78 67.0399 67.05V43.71H58.1699V32.43H67.1499V19.39L78.5399 12.71H81.6099V32.43H95.0899V43.71H81.6099V63.32C81.6099 69.35 83.4699 71.21 88.5099 71.21C90.2599 71.21 91.9099 70.77 93.8799 69.9L94.8699 70.45Z" fill="#03ADA2"/>
<path d="M151.62 73.2899V82.0499C148.99 82.82 146.36 83.3599 142.96 83.3599C136.61 83.3599 133.65 80.6199 132.77 76.6799C127.95 81.6099 122.8 83.6899 116.23 83.6899C107.03 83.6899 101.77 78.6499 101.77 71.0899C101.77 61.9999 109.44 56.0799 131.46 52.8999V50.2699C131.46 44.6799 129.05 42.1599 124.45 42.1599C119.85 42.1599 115.58 44.6799 112.07 49.3899L111.08 49.4999L102.53 43.5799C107.35 35.6899 116.22 30.3199 126.63 30.3199C139.12 30.3199 145.91 36.6699 145.91 48.8399V70.6399C145.91 72.8299 146.46 73.4899 148.1 73.4899C148.76 73.4899 149.52 73.2699 150.73 72.7199L151.61 73.2699L151.62 73.2899ZM121.38 74.7199C125 74.7199 128.28 73.1899 131.46 70.2299V59.9299C119.63 62.1199 115.57 64.9699 115.57 69.4599C115.57 72.7499 117.54 74.7199 121.38 74.7199Z" fill="#03ADA2"/>
<path d="M188.98 13.59C187.34 12.82 185.69 12.49 184.38 12.49C180.33 12.49 178.57 14.79 178.57 22.24V32.43H189.31V43.71H178.57V81.62H164V43.71H155.13V32.43H164V22.68C164 6.14 169.26 0 181.31 0C184.27 0 187.77 0.55 190.62 1.42L189.96 13.03L188.97 13.58L188.98 13.59Z" fill="#03ADA2"/>
<path d="M220.97 13.59C219.33 12.82 217.68 12.49 216.37 12.49C212.32 12.49 210.56 14.79 210.56 22.24V32.43H221.3V43.71H210.56V81.62H195.99V43.71H187.12V32.43H195.99V22.68C195.99 6.14 201.25 0 213.3 0C216.26 0 219.76 0.55 222.61 1.42L221.95 13.03L220.96 13.58L220.97 13.59Z" fill="#03ADA2"/>
<path d="M228.96 105.5V32.43H243.31V40.54C247.58 33.86 253.94 30.35 261.28 30.35C273.88 30.35 282.75 40.43 282.75 56.64C282.75 72.85 273.33 83.7 260.4 83.7C253.61 83.7 247.03 80.19 243.31 73.95C243.42 78.55 243.53 84.14 243.53 89.62V105.51H228.96V105.5ZM268.18 56.86C268.18 47.99 263.69 42.62 256.13 42.62C248.57 42.62 243.2 48.76 243.2 57.08C243.2 65.4 248.46 71.32 256.02 71.32C263.58 71.32 268.18 65.84 268.18 56.86Z" fill="#03ADA2"/>
<path d="M291.51 81.6201V1.31006H306.08V81.6201H291.51Z" fill="#03ADA2"/>
<path d="M365.57 73.2899V82.0499C362.94 82.82 360.31 83.3599 356.91 83.3599C350.56 83.3599 347.6 80.6199 346.72 76.6799C341.9 81.6099 336.75 83.6899 330.18 83.6899C320.98 83.6899 315.72 78.6499 315.72 71.0899C315.72 61.9999 323.39 56.0799 345.41 52.8999V50.2699C345.41 44.6799 343 42.1599 338.4 42.1599C333.8 42.1599 329.53 44.6799 326.02 49.3899L325.03 49.4999L316.48 43.5799C321.3 35.6899 330.17 30.3199 340.58 30.3199C353.07 30.3199 359.86 36.6699 359.86 48.8399V70.6399C359.86 72.8299 360.41 73.4899 362.05 73.4899C362.71 73.4899 363.47 73.2699 364.68 72.7199L365.56 73.2699L365.57 73.2899ZM335.34 74.7199C338.96 74.7199 342.24 73.1899 345.42 70.2299V59.9299C333.59 62.1199 329.53 64.9699 329.53 69.4599C329.53 72.7499 331.5 74.7199 335.34 74.7199Z" fill="#03ADA2"/>
<path d="M373.79 32.43H388.14V40.54C392.3 33.86 398.11 30.35 405.34 30.35C416.51 30.35 423.2 37.25 423.2 49.85V81.62H408.63V54.67C408.63 46.12 405.78 42.84 399.65 42.84C392.97 42.84 388.37 48.65 388.37 57.52V81.62H373.8V32.43H373.79Z" fill="#03ADA2"/>
</g>
<defs>
<clipPath id="clip0_5_33">
<rect width="423.2" height="105.5" fill="white"/>
</clipPath>
</defs>
</svg>
